<mxfile host="Electron" modified="2023-07-06T18:49:44.907Z" agent="Mozilla/5.0 (Windows NT 10.0; Win64; x64) AppleWebKit/537.36 (KHTML, like Gecko) draw.io/21.5.0 Chrome/112.0.5615.204 Electron/24.5.1 Safari/537.36" etag="6djcZe6Wg_qtxx_WLJnf" version="21.5.0" type="device">
  <diagram name="Page-1" id="qOLJ9kBOI78XmQGIXBd1">
    <mxGraphModel dx="1062" dy="655" grid="1" gridSize="10" guides="1" tooltips="1" connect="1" arrows="1" fold="1" page="1" pageScale="1" pageWidth="850" pageHeight="1100" math="0" shadow="0">
      <root>
        <mxCell id="0" />
        <mxCell id="1" parent="0" />
        <mxCell id="2_Bq2w9DQefLNt33csex-14" value="" style="ellipse;whiteSpace=wrap;html=1;" vertex="1" parent="1">
          <mxGeometry x="410" y="670" width="30" height="30" as="geometry" />
        </mxCell>
        <mxCell id="2_Bq2w9DQefLNt33csex-13" value="" style="ellipse;whiteSpace=wrap;html=1;" vertex="1" parent="1">
          <mxGeometry x="270" y="680" width="30" height="20" as="geometry" />
        </mxCell>
        <mxCell id="2_Bq2w9DQefLNt33csex-1" value="" style="swimlane;startSize=0;" vertex="1" parent="1">
          <mxGeometry x="236" y="720" width="400" height="250" as="geometry">
            <mxRectangle x="236" y="720" width="50" height="40" as="alternateBounds" />
          </mxGeometry>
        </mxCell>
        <mxCell id="2_Bq2w9DQefLNt33csex-2" value="login and register&amp;nbsp;" style="text;strokeColor=none;align=center;fillColor=none;html=1;verticalAlign=middle;whiteSpace=wrap;rounded=0;" vertex="1" parent="2_Bq2w9DQefLNt33csex-1">
          <mxGeometry x="31" y="20" width="60" height="30" as="geometry" />
        </mxCell>
        <mxCell id="2_Bq2w9DQefLNt33csex-3" value="name (em)" style="text;strokeColor=none;align=center;fillColor=none;html=1;verticalAlign=middle;whiteSpace=wrap;rounded=0;" vertex="1" parent="2_Bq2w9DQefLNt33csex-1">
          <mxGeometry x="156" y="30" width="65" height="20" as="geometry" />
        </mxCell>
        <mxCell id="2_Bq2w9DQefLNt33csex-4" value="glorious description" style="text;strokeColor=none;align=center;fillColor=none;html=1;verticalAlign=middle;whiteSpace=wrap;rounded=0;" vertex="1" parent="2_Bq2w9DQefLNt33csex-1">
          <mxGeometry x="156" y="110" width="60" height="60" as="geometry" />
        </mxCell>
        <mxCell id="2_Bq2w9DQefLNt33csex-5" value="" style="endArrow=classic;html=1;rounded=0;exitX=0.25;exitY=0;exitDx=0;exitDy=0;entryX=0.479;entryY=1.074;entryDx=0;entryDy=0;entryPerimeter=0;" edge="1" parent="1" source="2_Bq2w9DQefLNt33csex-2" target="2_Bq2w9DQefLNt33csex-8">
          <mxGeometry width="50" height="50" relative="1" as="geometry">
            <mxPoint x="450" y="820" as="sourcePoint" />
            <mxPoint x="287" y="690" as="targetPoint" />
          </mxGeometry>
        </mxCell>
        <mxCell id="2_Bq2w9DQefLNt33csex-8" value="IAAA" style="text;html=1;align=center;verticalAlign=middle;resizable=0;points=[];autosize=1;strokeColor=none;fillColor=none;" vertex="1" parent="1">
          <mxGeometry x="260" y="675" width="50" height="30" as="geometry" />
        </mxCell>
        <mxCell id="2_Bq2w9DQefLNt33csex-9" value="" style="endArrow=classic;html=1;rounded=0;" edge="1" parent="1">
          <mxGeometry width="50" height="50" relative="1" as="geometry">
            <mxPoint x="450" y="820" as="sourcePoint" />
            <mxPoint x="500" y="770" as="targetPoint" />
          </mxGeometry>
        </mxCell>
        <mxCell id="2_Bq2w9DQefLNt33csex-10" value="" style="endArrow=classic;startArrow=classic;html=1;rounded=0;exitX=1.027;exitY=0.549;exitDx=0;exitDy=0;exitPerimeter=0;" edge="1" parent="1" source="2_Bq2w9DQefLNt33csex-8">
          <mxGeometry width="50" height="50" relative="1" as="geometry">
            <mxPoint x="450" y="820" as="sourcePoint" />
            <mxPoint x="410" y="686" as="targetPoint" />
            <Array as="points" />
          </mxGeometry>
        </mxCell>
        <mxCell id="2_Bq2w9DQefLNt33csex-11" value="DB&lt;br&gt;" style="text;strokeColor=none;align=center;fillColor=none;html=1;verticalAlign=middle;whiteSpace=wrap;rounded=0;" vertex="1" parent="1">
          <mxGeometry x="395" y="670" width="60" height="30" as="geometry" />
        </mxCell>
        <mxCell id="2_Bq2w9DQefLNt33csex-12" value="" style="endArrow=classic;html=1;rounded=0;exitX=0.449;exitY=-0.142;exitDx=0;exitDy=0;exitPerimeter=0;" edge="1" parent="1" source="2_Bq2w9DQefLNt33csex-8">
          <mxGeometry width="50" height="50" relative="1" as="geometry">
            <mxPoint x="450" y="590" as="sourcePoint" />
            <mxPoint x="285" y="590" as="targetPoint" />
          </mxGeometry>
        </mxCell>
        <mxCell id="2_Bq2w9DQefLNt33csex-15" value="" style="whiteSpace=wrap;html=1;aspect=fixed;" vertex="1" parent="1">
          <mxGeometry x="236" y="180" width="400" height="400" as="geometry" />
        </mxCell>
        <mxCell id="2_Bq2w9DQefLNt33csex-16" value="User front page" style="text;strokeColor=none;align=center;fillColor=none;html=1;verticalAlign=middle;whiteSpace=wrap;rounded=0;" vertex="1" parent="1">
          <mxGeometry x="381" y="180" width="110" height="10" as="geometry" />
        </mxCell>
      </root>
    </mxGraphModel>
  </diagram>
</mxfile>
